# xmcd
#
# Track frame offsets:
#	150
#	20271
#	37789
#	53249
#	72783
#	88001
#	104392
#	121611
#	140417
#	158941
#	179336
#	194158
#	215645
#
# Disc length: 3101
#
# Revision: 1
# Processed by: cddbd v1.5.1PL0 Copyright (c) Steve Scherf et al.
# Submitted via: VisiTrax 2.9.5.181 - For more info visit www.synapsa.com
# Normalized: r0:DSETVAR1
#
DISCID=b20c1b0d
DTITLE=Various Artist - Greatest Hits Of The Country Vol. 4
DYEAR=2000
DGENRE=Country
TTITLE0=Alan Jackson - Little Man
TTITLE1=Brook and Dunn - The Long Goodbye
TTITLE2=Cyndi Thompson - What I Really Meant
TTITLE3=Garth Brooks - I've Got Friends In Low Places
TTITLE4=George Strait - All My Ex's Live in Texas
TTITLE5=Jo Dee Messina - Lesson In Leavin'
TTITLE6=Le Ann Rhymes - I Need You
TTITLE7=Lonestar - Not A Day Goes By
TTITLE8=Rascal Flatts - I'm Movin On
TTITLE9=Steve Warner - Two Teardrops
TTITLE10=Terry Clark - A Little Gasoline
TTITLE11=Trace Adkins - I'm Tryin'
TTITLE12=Travis Tritt - If I Lost You
EXTD=
EXTT0=
EXTT1=
EXTT2=
EXTT3=
EXTT4=
EXTT5=
EXTT6=
EXTT7=
EXTT8=
EXTT9=
EXTT10=
EXTT11=
EXTT12=
PLAYORDER=
